<svg xmlns="http://www.w3.org/2000/svg" width="109" height="28" viewBox="0 0 109 28">
    <path fill="#FFF" fill-rule="evenodd" d="M4.184 22.192l1.234-4.232h4.905l1.154 4.232h4.544L11.51 6.144c-.256-.944-.825-1.392-1.811-1.392h-6.42v1.496h.545c.665 0 1.026.256 1.026.776 0 .336-.072.624-.337 1.416L0 22.192h4.184zm5.514-7.136H6.059L8 8.688l1.699 6.368zM21.6 22.192V6.088c0-.84-.49-1.336-1.275-1.336h-3.919v1.496h.265c.665 0 .953.288.953.968v14.976H21.6zm7.029 0V6.088c0-.84-.49-1.336-1.275-1.336h-3.919v1.496h.256c.674 0 .954.288.954.968v14.976h3.984zm7.028 0V10.328c0-.84-.488-1.344-1.282-1.344h-3.887v1.584h.232c.674 0 .954.312.954 1v10.624h3.983zm0-15.856c0-1.152-.833-1.848-2.26-1.848-1.41 0-2.26.696-2.26 1.848 0 1.16.85 1.856 2.26 1.856 1.427 0 2.26-.696 2.26-1.856zm3.559 6.568c1.338-.656 2.797-1.016 3.943-1.016 1.082 0 1.467.392 1.467 1.536v.28c-1.627.264-2.14.368-3.062.576a9.14 9.14 0 0 0-1.498.496c-1.603.648-2.365 1.92-2.365 3.872 0 2.472 1.042 3.672 3.206 3.672.786 0 1.499-.16 2.14-.416.561-.264.89-.472 1.707-1.128v.184c0 .816.417 1.232 1.226 1.232h3.727v-1.496h-.184c-.697 0-.954-.288-.954-1.064v-6.184c0-3.32-1.138-4.464-4.4-4.464-1.058 0-2.092.128-3.094.368-1.001.232-1.522.44-2.733 1.04l.874 2.512zm5.41 3.04v2.52c-.681.696-1.515 1.112-2.22 1.112-.738 0-.994-.36-.994-1.32 0-.96.208-1.408.938-1.688.553-.232 1.258-.44 2.276-.624zm11.22 6.248V13.32c.714-.76 1.46-1.104 2.317-1.104.905 0 1.13.344 1.13 1.656v8.32h3.975v-8.984c0-2.088-.16-2.744-.817-3.456-.553-.608-1.403-.928-2.485-.928-1.61 0-2.741.52-4.28 2.008v-.544c0-.864-.409-1.304-1.226-1.304h-3.775v1.584h.224c.674 0 .954.312.954 1v10.624h3.983zm19.677-2.672h-5.619l5.362-7.608V9.248h-8.495c-.962 0-1.403.44-1.403 1.4v2.36h1.595v-.232c0-.6.304-.888.946-.888h2.893l-5.434 7.68v2.624h10.155V19.52zm16.237 1.856V8.808h-2.196c-1.082 0-1.514.448-1.514 1.552v11.016h3.71zm7.166 0h3.71V10.36c0-1.104-.408-1.552-1.522-1.552h-2.188v12.568zm-1.86 0V6.832c0-1.16-.377-1.552-1.507-1.552h-3.278v1.584h.537c.12 0 .24.08.345.184.144.184.192.368.192.752v13.576h3.711zM109 13.984C109 5.976 103.11 0 95.223 0S81.42 5.976 81.42 13.984c0 8.04 5.915 14.016 13.802 14.016C103.109 28 109 22.024 109 13.984zm-2.653 0c0 6.584-4.713 11.376-11.132 11.376-6.452 0-11.14-4.792-11.14-11.376 0-6.552 4.688-11.344 11.14-11.344 6.42 0 11.132 4.792 11.132 11.344z"/>
</svg>
