<svg xmlns="http://www.w3.org/2000/svg" width="90" height="19" viewBox="0 0 90 19">
    <path fill="#FFF" fill-rule="evenodd" d="M7.081 13.288a7.74 7.74 0 0 1-1.143-4.056c0-4.42 3.633-8.112 8.047-8.112 1.558 0 3.066.73 4.294 1.502l-4.294 6.619 7.53-4.523C19.617 1.926 16 0 11.51 0 5.15 0 0 4.175 0 9.334c0 1.409.381 2.75 1.076 3.946 1.83 3.182 5.819 5.388 10.435 5.388 4.015 0 7.598-1.578 9.606-4.192l-.305-.992s-2.389 3.742-6.726 3.742a8.234 8.234 0 0 1-7.005-3.938zm31.434-.008L36.27 5.702s-1.423-3.86-5.895-2.231c-4.481 1.629-5.49 2.231-5.49 2.231h6.066l1.44 4.829c-1.11-.985-2.728-1.604-4.532-1.604-3.185 0-5.794 1.918-6.03 4.353-.01.127-.018.246-.018.365 0 2.605 2.702 4.718 6.048 4.718 2.787 0 5.141-1.477 5.836-3.48l1.042 3.48h5.285l-1.507-5.083zm-11.257 0a3.038 3.038 0 0 1 2.998-2.58 3.025 3.025 0 0 1 3.032 3.038 3.032 3.032 0 1 1-6.064 0c0-.153.017-.305.034-.458zm28.164 0V5.728a2.726 2.726 0 0 0-2.72-2.648c-1.431 0-3.506 1.358-5.607 2.487-.127-1.392-1.186-2.487-2.609-2.487-1.499 0-5.836 2.622-5.836 2.622h3.117v12.66h5.345V6.653c.212-.55.754-.95 1.38-.95.822 0 1.492.67 1.492 1.494v11.167h5.438V13.28zm17.042 0c.254-.772.39-1.595.39-2.46 0-4.329-3.507-7.842-7.836-7.842-4.328 0-7.835 3.513-7.835 7.841 0 .866.136 1.689.39 2.461 1.033 3.131 3.973 5.388 7.445 5.388 3.473 0 6.412-2.257 7.446-5.388zm-8.657 0l-2.295-7.578c.127-.984 1.1-1.934 2.126-1.934 1.025 0 1.872.772 1.99 1.773l2.253 7.739.644 2.206c.009.077.017.153.017.23a2.004 2.004 0 0 1-1.999 2.002 1.97 1.97 0 0 1-1.982-1.935l-.754-2.503zm17.67 0V6.653c.211-.552.753-.95 1.38-.95.822 0 1.49.67 1.49 1.493v11.167h5.439V5.728a2.726 2.726 0 0 0-2.72-2.648c-1.43 0-3.506 1.358-5.607 2.487-.127-1.392-1.185-2.487-2.609-2.487-1.499 0-5.709 2.622-5.709 2.622h2.99v12.66h5.345V13.28z"/>
</svg>
